<?xml version="1.0" standalone="no"?>
<!DOCTYPE svg PUBLIC "-//W3C//DTD SVG 20010904//EN"
 "http://www.w3.org/TR/2001/REC-SVG-20010904/DTD/svg10.dtd">
<svg version="1.0" xmlns="http://www.w3.org/2000/svg"
 width="120.000000pt" height="120.000000pt" viewBox="0 0 120.000000 120.000000"
 preserveAspectRatio="xMidYMid meet">
<metadata>
Created by potrace 1.13, written by Peter Selinger 2001-2015
</metadata>
<g transform="translate(0.000000,120.000000) scale(0.100000,-0.100000)"
fill="#000000" stroke="none">
<path d="M480 1063 c-14 -2 -55 -11 -92 -19 l-67 -16 -18 -76 c-26 -113 -25
-364 3 -446 10 -33 24 -61 30 -63 6 -2 31 11 55 30 34 26 44 39 44 63 0 27 -3
29 -44 32 -50 4 -91 27 -91 50 0 9 12 27 27 39 22 20 37 23 101 23 44 0 93 7
121 17 44 15 51 15 99 0 35 -12 85 -17 161 -17 l111 0 0 69 c0 60 -21 215 -36
262 -8 27 -124 51 -259 54 -66 1 -131 1 -145 -2z m-77 -190 c14 -55 15 -56 16
-20 1 33 4 37 29 38 15 0 46 3 70 5 33 4 42 2 42 -10 0 -9 -8 -16 -17 -16 -15
0 -15 -2 -4 -9 10 -7 20 -2 33 15 21 26 56 32 76 12 9 -9 12 -9 12 -1 0 13 57
12 78 0 6 -5 12 -17 12 -28 0 -23 8 -24 35 -3 20 16 20 16 -2 9 -17 -5 -23 -2
-23 9 0 11 9 16 28 16 31 0 46 -8 56 -30 3 -8 4 4 2 28 -3 36 -1 42 14 42 19
0 20 -1 36 -107 l5 -33 -94 0 -94 0 -1 36 c-2 51 -12 56 -12 7 l0 -41 -52 0
c-29 0 -61 4 -70 9 -10 6 -19 5 -23 -1 -3 -5 -22 -10 -41 -10 -28 0 -34 4 -34
20 0 18 3 19 20 10 26 -14 26 1 0 23 -26 22 -40 14 -40 -24 0 -28 -2 -29 -45
-29 -33 0 -45 4 -45 15 0 8 -7 15 -15 15 -9 0 -18 -7 -21 -15 -4 -8 -15 -15
-25 -15 -18 0 -18 2 2 58 12 31 23 63 25 70 2 6 14 12 28 12 21 0 26 -7 39
-57z"/>
<path d="M253 1002 c-30 -19 -56 -232 -42 -347 16 -132 72 -267 98 -240 6 6
-1 39 -17 85 -24 69 -26 88 -26 225 0 99 6 173 16 218 14 62 14 67 -1 67 -9 0
-21 -4 -28 -8z"/>
<path d="M916 948 c8 -35 17 -111 21 -170 6 -103 7 -108 28 -108 17 0 24 7 28
33 6 37 -6 168 -23 243 -11 49 -24 63 -61 64 -4 0 0 -28 7 -62z"/>
<path d="M921 546 c-22 -99 -75 -193 -159 -278 -42 -44 -86 -84 -96 -90 -11
-6 11 18 49 53 101 95 169 210 190 322 7 36 6 37 -22 37 -16 0 -37 -6 -48 -14
-11 -7 -32 -16 -47 -20 -22 -5 -28 -12 -28 -35 0 -59 -69 -129 -138 -138 -52
-7 -83 1 -119 31 l-29 25 -57 -22 c-31 -12 -57 -26 -57 -31 0 -17 73 -107 133
-162 34 -32 49 -48 32 -37 -36 25 -144 137 -169 176 -18 27 -46 37 -46 16 0
-16 128 -147 179 -182 25 -17 52 -30 60 -30 9 0 22 -4 28 -9 7 -6 25 -7 40 -3
16 5 33 9 40 11 45 9 200 155 248 234 30 49 75 163 75 190 0 5 -11 10 -23 10
-21 0 -25 -7 -36 -54z"/>
</g>
</svg>
