<?xml version="1.0" standalone="no"?>
<!DOCTYPE svg PUBLIC "-//W3C//DTD SVG 20010904//EN"
 "http://www.w3.org/TR/2001/REC-SVG-20010904/DTD/svg10.dtd">
<svg version="1.0" xmlns="http://www.w3.org/2000/svg"
 width="1024.000000pt" height="768.000000pt" viewBox="0 0 1024.000000 768.000000"
 preserveAspectRatio="xMidYMid meet">
<metadata>
Created by potrace 1.13, written by Peter Selinger 2001-2015
</metadata>
<g transform="translate(0.000000,768.000000) scale(0.100000,-0.100000)"
fill="#000000" stroke="none">
<path d="M1530 7674 c0 -22 46 -153 59 -168 15 -18 15 -18 -6 -12 -37 12 -35
-12 4 -38 21 -15 43 -26 49 -26 38 0 159 -146 147 -177 -3 -7 0 -13 6 -13 6 0
11 -7 11 -15 0 -8 -5 -15 -11 -15 -5 0 -7 -4 -4 -10 3 -5 14 -10 25 -10 20 0
38 -32 21 -38 -6 -2 -11 -13 -11 -24 0 -14 -5 -18 -16 -14 -67 26 -115 18
-112 -19 1 -13 10 -26 20 -28 24 -7 23 -29 -3 -46 -19 -11 -21 -11 -16 1 2 8
-4 25 -14 39 -20 26 -26 69 -9 69 6 0 -6 15 -27 32 -21 18 -41 37 -44 42 -12
16 -2 69 15 78 14 8 14 11 -4 30 -14 15 -20 36 -20 67 0 40 -5 49 -46 88 -26
24 -51 43 -55 43 -16 0 -9 23 13 47 21 23 13 34 -10 11 -16 -16 -24 -7 -31 42
-2 11 -78 -81 -106 -128 -27 -47 -42 -58 -69 -53 -5 1 -6 -8 -3 -20 6 -24 -22
-129 -35 -129 -4 0 -15 11 -24 25 -21 32 -29 31 -58 -1 -28 -33 -38 -29 -139
63 -70 63 -127 98 -150 90 -15 -5 -9 -108 8 -127 7 -8 15 -32 19 -52 5 -26 13
-39 29 -44 40 -13 97 -54 92 -66 -4 -9 5 -13 25 -14 17 -1 42 -7 55 -14 18
-10 34 -10 65 -2 36 9 41 8 35 -6 -3 -8 -10 -36 -16 -61 -5 -25 -12 -54 -15
-63 -3 -10 -1 -18 4 -18 4 0 19 34 32 75 22 70 38 94 41 60 5 -60 49 -95 137
-110 33 -5 42 -11 38 -22 -3 -8 -6 -17 -6 -19 0 -2 -19 -4 -42 -5 -24 -1 -54
-4 -68 -8 l-25 -8 30 -6 c17 -4 58 -11 92 -16 84 -13 119 -31 115 -57 -2 -15
4 -23 18 -27 16 -4 21 -12 18 -29 -3 -22 -6 -23 -116 -25 -63 -2 -143 -10
-179 -18 -35 -8 -84 -15 -109 -15 -36 0 -44 3 -44 19 0 10 -16 31 -35 45 -19
15 -35 34 -35 42 0 21 44 17 65 -6 12 -13 22 -17 29 -11 22 18 1 161 -24 161
-11 0 -19 50 -8 56 15 9 -3 26 -21 18 -9 -4 -34 -8 -56 -8 -139 -6 -135 -5
-128 -22 4 -11 14 -14 32 -11 14 2 37 1 51 -3 22 -7 20 -8 -14 -9 l-40 -1 27
-28 c15 -15 27 -35 27 -44 0 -9 16 -26 36 -37 20 -12 34 -24 32 -27 -7 -7 -38
7 -38 17 0 5 -10 9 -22 9 -13 0 -35 7 -50 14 -20 11 -36 12 -60 5 -18 -5 -48
-9 -66 -9 -24 0 -65 -19 -135 -62 -119 -71 -112 -66 -105 -74 3 -3 23 2 44 11
47 21 132 45 157 45 10 0 17 -6 16 -12 -3 -29 2 -40 16 -35 8 4 17 2 20 -3 10
-16 25 -11 19 5 -13 32 35 15 65 -24 35 -44 37 -51 16 -51 -8 0 -15 -5 -15
-11 0 -7 9 -9 22 -5 18 4 32 -5 65 -40 36 -37 94 -74 118 -74 3 0 5 13 5 28 0
15 5 33 11 39 8 8 7 17 -2 31 -7 12 -11 23 -9 25 3 3 38 8 78 12 75 7 97 -4
45 -23 -34 -12 -73 -41 -56 -42 7 0 10 -6 7 -14 -3 -8 8 -29 25 -48 24 -26 33
-30 40 -19 7 11 13 9 30 -8 12 -12 26 -19 32 -15 14 8 2 94 -17 114 -18 21 -7
65 12 49 10 -8 17 -7 29 5 9 9 26 18 38 20 46 10 157 13 157 5 0 -14 -24 -23
-52 -20 -39 4 -61 -20 -48 -53 5 -14 15 -26 21 -26 7 0 9 -9 5 -24 -6 -24 31
-76 55 -76 9 0 9 -3 0 -14 -10 -11 -7 -17 10 -30 34 -24 18 -28 -41 -10 -29 8
-56 12 -60 7 -14 -15 -20 -48 -11 -62 8 -12 13 -12 35 2 16 11 35 15 51 11 36
-9 31 -22 -11 -30 -26 -5 -34 -10 -29 -22 3 -8 -3 -23 -15 -34 -22 -20 -37
-65 -25 -76 4 -4 32 20 62 52 53 57 55 58 48 28 -3 -18 -3 -32 2 -32 11 0 43
53 43 70 0 7 8 19 18 26 16 12 15 13 -5 14 -16 0 -23 6 -23 20 0 16 7 20 33
20 17 0 41 -7 51 -15 11 -8 31 -15 45 -15 21 0 16 -6 -29 -33 -54 -32 -55 -34
-53 -77 2 -46 28 -87 37 -59 3 8 7 39 8 69 2 43 6 54 18 51 8 -2 41 -9 73 -15
31 -5 57 -13 57 -16 0 -4 -12 -20 -26 -36 l-26 -29 6 27 c10 44 -11 41 -56 -9
-24 -26 -55 -59 -71 -73 -26 -25 -28 -44 -3 -34 15 6 88 -55 83 -70 -3 -6 3
-20 12 -31 15 -18 15 -19 -1 -6 -33 25 -18 -6 20 -42 120 -114 136 -123 162
-92 15 18 56 20 66 3 4 -6 8 -32 9 -57 4 -85 17 -181 26 -187 6 -3 7 19 3 53
-4 32 -3 55 1 50 10 -9 33 -70 41 -106 3 -14 9 -32 14 -40 14 -24 13 40 -2
111 -10 47 -10 61 0 67 19 11 92 -65 92 -96 0 -38 19 -67 35 -53 14 12 30 57
26 78 -1 8 5 22 15 33 16 17 16 20 -1 46 -16 24 -16 26 -2 14 13 -11 17 -11
17 -1 0 8 3 10 8 6 4 -4 7 -18 7 -29 0 -13 9 -26 23 -32 30 -13 28 -27 -3 -15
-36 14 -32 -6 5 -25 17 -9 30 -19 30 -23 0 -15 -59 -52 -65 -42 -11 18 -26 10
-20 -10 4 -14 2 -20 -9 -20 -22 0 -28 -17 -14 -40 19 -30 75 -28 90 5 6 14 16
25 21 25 6 0 22 10 36 23 l25 22 -17 -25 c-33 -49 -38 -60 -27 -60 5 0 10 6
11 13 0 6 4 1 10 -11 5 -13 18 -26 29 -29 11 -3 20 -8 20 -12 0 -6 -55 -61
-62 -61 -2 0 -3 15 -3 32 0 23 -5 34 -17 36 -21 4 -63 -32 -53 -47 3 -6 -1
-14 -10 -17 -9 -4 -23 -20 -31 -36 -8 -16 -19 -26 -24 -23 -6 3 -18 1 -27 -4
-10 -6 -12 -11 -5 -11 6 0 12 -9 12 -21 l0 -20 -27 21 c-26 21 -28 21 -31 3
-5 -31 -24 -73 -33 -73 -5 0 -20 26 -34 57 -15 31 -40 71 -57 88 -16 16 -37
42 -46 58 -39 65 -43 5 -7 -103 31 -93 31 -112 3 -70 -45 65 -97 56 -64 -11 9
-18 16 -43 16 -56 0 -12 5 -23 10 -23 6 0 10 -4 10 -8 0 -5 -32 -10 -72 -10
-85 -2 -108 -16 -52 -31 22 -6 48 -11 60 -11 12 0 25 -10 32 -24 7 -15 21 -25
41 -28 36 -5 40 2 11 20 -45 28 3 72 52 46 26 -14 38 -47 38 -110 0 -31 -3
-33 -57 -50 -32 -10 -66 -16 -75 -15 -10 1 -18 -3 -18 -8 0 -6 -21 -11 -48
-11 -27 0 -57 -6 -68 -15 -18 -13 -16 -14 26 -16 25 0 68 0 95 2 110 5 145 5
145 1 0 -15 -39 -29 -67 -25 -26 4 -33 2 -33 -10 0 -9 7 -22 15 -31 22 -22 19
-26 -16 -19 -25 5 -31 3 -27 -8 2 -8 14 -18 26 -24 12 -5 22 -16 22 -23 0 -9
-6 -9 -23 3 -30 19 -39 10 -31 -31 5 -29 2 -35 -43 -69 -75 -57 -209 -118
-268 -122 -27 -1 -63 -8 -79 -15 -24 -9 -31 -9 -40 3 -6 9 -19 18 -28 22 -9 3
-20 22 -24 42 -3 19 -11 38 -17 42 -30 18 26 -128 57 -149 12 -8 13 -7 -39
-42 -38 -26 -39 -27 -10 -20 17 4 40 11 53 15 13 5 34 9 48 9 13 0 57 11 97
25 39 14 108 35 151 46 78 20 172 75 221 128 12 14 25 19 38 15 16 -5 19 -3
13 12 -4 10 0 31 10 49 16 30 16 30 92 26 64 -3 74 -1 69 12 -3 9 1 21 9 27 7
7 18 30 24 51 l10 38 42 -19 c23 -10 48 -27 55 -36 10 -14 16 -15 25 -6 13 13
44 16 51 4 3 -4 -1 -24 -8 -44 -10 -31 -10 -40 1 -49 8 -6 14 -17 14 -25 0
-16 31 -34 59 -34 12 0 38 16 60 35 29 27 37 41 34 59 -4 21 -2 23 22 19 24
-5 25 -3 20 20 -6 24 -4 26 42 31 26 4 67 12 90 19 49 16 74 7 66 -24 -4 -15
0 -27 12 -35 17 -13 15 -14 -18 -14 -49 0 -47 -16 2 -25 48 -8 78 -35 39 -35
-14 0 -47 7 -74 15 -53 16 -151 20 -172 6 -19 -12 92 -123 148 -148 25 -11 69
-40 99 -66 29 -25 59 -43 67 -40 8 3 14 -1 14 -11 0 -9 -7 -16 -15 -16 -18 0
-20 -16 -3 -26 6 -4 8 -3 5 3 -4 6 13 10 41 12 26 1 49 6 50 11 9 25 34 5 62
-50 35 -69 36 -74 13 -62 -10 6 -38 13 -63 17 -25 4 -56 14 -70 22 -14 8 -18
12 -9 9 9 -2 28 2 42 9 15 7 34 15 44 18 12 3 9 5 -9 6 -15 0 -30 -3 -33 -9
-3 -5 -16 -10 -28 -10 -18 0 -19 2 -7 11 11 8 7 9 -17 5 -18 -3 -35 -1 -38 4
-3 6 -11 10 -17 10 -6 0 -5 -6 3 -16 7 -8 20 -13 30 -11 11 3 16 0 13 -7 -7
-18 -43 -14 -50 6 -3 10 -18 27 -35 38 -27 20 -29 20 -29 3 0 -10 -9 -36 -21
-57 -16 -30 -19 -49 -15 -80 4 -22 1 -62 -6 -89 l-12 -49 42 -35 c34 -28 41
-40 36 -57 -5 -17 -4 -19 7 -9 8 9 44 13 102 13 48 0 119 5 157 11 55 9 73 9
85 -1 11 -9 12 -17 4 -31 -13 -25 -55 -25 -69 1 -6 11 -17 20 -26 20 -11 0
-12 -4 -4 -19 12 -24 -4 -38 -25 -21 -27 23 -27 -11 0 -40 l28 -29 -27 -11
c-38 -14 -36 -15 -91 31 -50 41 -104 74 -111 67 -2 -2 12 -34 30 -71 l34 -66
-57 -11 c-31 -7 -87 -20 -124 -30 -60 -16 -72 -16 -97 -4 -16 8 -50 21 -77 28
-26 8 -73 23 -103 35 -40 15 -77 21 -140 21 -79 0 -151 15 -204 42 -15 8 -22
6 -31 -6 -13 -18 -45 -22 -45 -6 0 6 -7 10 -15 10 -8 0 -15 -9 -15 -19 0 -13
-19 -28 -63 -49 -35 -17 -70 -38 -77 -47 -8 -9 -25 -22 -40 -30 -19 -10 -45
-50 -89 -135 -34 -67 -61 -124 -59 -126 5 -4 64 86 124 188 32 55 50 73 107
108 57 35 73 41 100 35 77 -16 145 -17 175 -1 44 23 53 21 136 -30 71 -43 106
-71 72 -58 -26 10 -19 -32 7 -53 32 -25 37 -43 20 -76 -8 -15 -17 -67 -20
-115 -6 -88 -14 -112 -40 -112 -10 0 -11 4 -3 19 9 18 7 19 -26 14 -31 -5 -40
-1 -77 34 -74 69 -213 170 -222 161 -3 -3 31 -41 76 -86 44 -45 78 -86 74 -92
-3 -5 -1 -10 6 -10 12 0 111 -87 118 -103 2 -5 -25 -8 -60 -7 -35 1 -85 -2
-111 -6 -53 -7 -62 4 -25 29 l22 16 -23 16 c-24 18 -29 41 -9 48 7 2 0 14 -20
31 -18 15 -33 33 -33 40 0 7 -22 27 -49 44 l-49 30 -23 -24 c-29 -31 -39 -98
-22 -141 15 -37 0 -56 -22 -27 -13 18 -14 18 -24 -8 -13 -35 -22 -39 -60 -28
-18 5 -31 5 -31 0 0 -15 70 -25 187 -25 62 0 113 -3 113 -6 0 -3 -15 -13 -32
-22 -32 -15 -27 -16 129 -16 143 -1 163 -3 172 -18 9 -17 11 -17 39 0 35 20
42 21 42 6 0 -7 8 -18 18 -25 16 -13 16 -15 -5 -31 -17 -13 -20 -22 -13 -33 5
-8 10 -28 10 -44 0 -21 4 -27 15 -22 9 3 18 -1 21 -9 4 -9 19 -15 35 -15 32 0
78 -34 60 -44 -5 -4 -7 -14 -4 -22 4 -10 -2 -17 -16 -21 -11 -3 -21 -9 -21
-13 0 -4 -10 -10 -21 -13 -14 -4 -20 -11 -16 -21 6 -15 -41 -71 -52 -61 -3 4
-1 9 4 13 19 13 14 37 -11 56 -19 13 -29 15 -37 7 -8 -8 -7 -11 5 -11 26 0 41
-25 23 -40 -13 -10 -15 -9 -15 9 0 11 -4 21 -10 21 -5 0 -10 -16 -10 -35 0
-38 -22 -57 -42 -37 -8 8 -6 15 6 27 12 12 16 35 16 84 0 39 5 72 12 79 9 9 8
12 -6 12 -10 0 -14 4 -10 12 5 8 2 9 -9 5 -10 -4 -36 4 -62 18 -29 17 -60 25
-90 25 -40 0 -50 5 -83 39 -31 33 -47 41 -90 47 -40 5 -59 14 -82 37 -17 17
-30 25 -30 19 0 -15 -36 -16 -45 -1 -5 7 -14 3 -26 -10 -14 -15 -32 -21 -62
-21 -49 0 -94 -25 -130 -72 -23 -30 -26 -43 -29 -146 -2 -61 0 -112 5 -112 4
0 7 -22 7 -50 0 -56 17 -67 27 -17 4 17 7 35 6 38 -1 3 27 5 62 5 l64 -1 -36
-34 c-31 -29 -34 -37 -25 -52 17 -26 17 -26 -32 -33 -44 -7 -56 -19 -56 -57 0
-10 -7 -19 -15 -19 -11 0 -14 7 -9 24 3 15 -1 34 -11 50 -10 15 -14 33 -10 46
5 14 2 20 -10 20 -9 0 -33 13 -53 29 -20 16 -57 35 -82 41 -25 6 -54 14 -65
17 -37 11 1 -22 55 -47 33 -16 50 -30 50 -42 0 -10 18 -36 40 -58 73 -73 49
-107 -67 -94 -74 9 -113 35 -113 76 0 23 -4 29 -15 24 -8 -3 -15 0 -15 7 -1 8
-5 7 -13 -3 -7 -8 -23 -14 -36 -12 -14 2 -58 -6 -99 -18 -50 -15 -90 -21 -123
-18 -27 3 -49 2 -49 -2 0 -4 -16 -11 -35 -14 -36 -7 -71 5 -91 32 -6 8 -35 24
-64 36 -30 12 -55 26 -57 32 -6 19 161 102 208 103 15 1 38 10 51 21 14 11 39
25 54 31 45 19 7 23 -94 9 -191 -25 -209 -30 -263 -83 -34 -32 -56 -46 -66
-42 -21 8 -34 -14 -22 -37 8 -15 6 -18 -13 -18 -13 0 -32 -7 -42 -15 -10 -8
-22 -12 -26 -10 -10 6 -126 32 -203 45 -61 11 -221 88 -242 116 -14 20 -45 13
-45 -11 0 -11 -10 -15 -35 -15 l-35 0 0 -59 0 -58 53 -8 c78 -12 127 -11 179
5 41 12 51 12 74 -1 46 -24 274 -254 274 -276 0 -11 -17 -37 -37 -58 -20 -21
-48 -54 -61 -73 l-23 -35 37 6 c33 6 35 5 18 -8 -27 -20 -37 -19 -68 10 -15
14 -30 25 -33 25 -3 0 -21 11 -39 25 -18 14 -43 25 -56 25 -30 0 -55 18 -71
49 -18 36 -35 38 -29 4 8 -42 72 -130 113 -153 31 -17 49 -37 49 -56 0 -2 -8
-4 -19 -4 -27 0 -44 -26 -37 -55 5 -18 2 -25 -9 -25 -8 0 -15 7 -15 16 0 8 -5
12 -10 9 -6 -3 -10 1 -10 10 0 9 -6 15 -12 13 -13 -5 -14 -4 -68 40 -19 16
-52 37 -72 47 -21 9 -38 21 -38 26 0 5 -12 9 -27 9 -14 0 -35 7 -45 17 -17 15
-18 14 -18 -40 0 -34 5 -58 13 -61 9 -5 9 -7 0 -12 -9 -4 -12 -293 -13 -1275
l0 -1269 2631 0 2631 0 -5 33 c-15 86 -19 177 -8 177 7 0 11 -6 10 -13 -1 -6
-1 -25 0 -41 l1 -29 23 24 c19 21 29 24 80 21 47 -3 68 1 111 22 28 14 63 37
75 50 28 29 39 103 22 143 -15 37 -75 75 -121 77 -34 1 -36 3 -27 22 9 22 46
44 71 44 7 0 24 -9 37 -21 21 -18 32 -20 83 -15 l58 6 -6 -33 c-3 -17 -11 -63
-16 -102 -5 -38 -14 -92 -19 -120 -5 -27 -10 -94 -10 -147 -1 -92 0 -98 19
-98 11 0 20 3 21 8 0 4 2 32 4 62 2 30 5 73 6 95 1 22 5 45 8 50 3 6 6 16 8
24 3 22 34 49 40 34 3 -7 12 -13 21 -13 12 0 10 5 -8 25 -13 14 -19 25 -13 25
6 0 14 -7 17 -16 4 -9 13 -14 22 -10 8 3 12 2 9 -4 -3 -6 1 -13 9 -16 9 -3 16
-15 16 -25 0 -10 5 -19 11 -19 6 0 8 7 4 18 -5 13 -4 14 6 5 10 -10 9 -15 -1
-28 -7 -8 -8 -15 -2 -15 5 0 15 7 22 15 17 21 30 19 30 -6 0 -11 5 -17 10 -14
6 3 22 -3 38 -13 15 -11 39 -18 55 -17 15 2 27 -1 27 -6 0 -5 10 -9 23 -9 12
0 33 -7 45 -16 12 -8 26 -13 31 -10 5 4 11 2 13 -4 6 -20 117 -34 270 -34 87
-1 158 3 158 7 0 4 8 3 18 -2 13 -7 27 -6 47 5 16 8 35 12 42 9 9 -3 11 0 7 6
-4 8 1 9 15 4 12 -4 21 -2 21 4 0 6 7 11 16 11 9 0 12 -5 8 -12 -4 -7 2 -4 14
6 14 12 22 15 22 6 0 -7 7 -10 15 -6 8 3 15 1 15 -5 0 -6 4 -7 10 -4 5 3 10
-1 10 -9 0 -9 6 -16 13 -16 9 0 8 -3 -2 -9 -11 -7 -11 -9 0 -14 11 -4 12 -7 2
-18 -7 -7 -13 -21 -13 -31 0 -17 70 -18 1720 -18 l1720 0 -1 241 c0 228 -1
241 -19 246 -21 6 -16 33 6 33 12 0 14 125 14 813 l0 814 -37 16 c-46 20 -830
332 -1033 412 -264 103 -371 143 -525 198 -587 208 -700 254 -770 312 -89 75
-215 150 -435 260 l-215 108 -131 131 c-72 72 -154 149 -183 171 -28 22 -51
43 -51 48 0 5 20 40 45 78 40 62 102 184 164 323 25 55 22 75 -3 22 -18 -38
-36 -55 -36 -33 0 7 11 42 25 77 15 39 24 78 22 99 -5 45 65 211 99 236 8 6
16 20 17 32 1 16 10 23 35 28 56 10 137 51 175 86 56 54 108 120 101 130 -3 5
-2 9 3 8 22 -4 24 3 8 21 -10 11 -24 20 -32 20 -7 0 -13 5 -13 11 0 6 6 9 14
6 10 -4 12 0 9 14 -3 10 -9 19 -13 19 -5 0 -3 11 3 25 13 27 37 34 37 10 0
-18 16 -20 23 -2 4 7 6 6 6 -4 1 -20 40 -32 58 -18 7 6 47 57 89 112 66 88 71
96 34 62 -43 -39 -40 -29 11 36 15 19 36 61 48 94 14 41 16 54 6 40 -33 -44
-69 -75 -89 -75 -15 0 -17 3 -8 12 20 20 13 32 -7 14 -19 -17 -20 -17 -30 3
-14 25 -14 34 -1 26 6 -3 10 -1 10 6 0 10 3 10 12 1 18 -18 25 -15 24 10 -1
16 5 23 18 23 31 0 60 69 63 149 1 38 -1 75 -5 80 -13 21 -29 76 -21 70 5 -3
9 4 9 15 0 12 5 21 11 21 5 0 8 -4 5 -9 -7 -11 3 -41 14 -41 4 0 5 11 2 25 -3
20 0 25 17 25 24 0 27 -10 9 -29 -11 -11 -10 -13 5 -8 16 6 22 -6 18 -40 -1
-7 2 -13 8 -13 5 0 8 8 7 18 -2 9 1 31 6 47 5 17 9 44 9 62 0 18 6 33 14 37
20 7 19 26 -2 43 -17 13 -17 13 2 11 15 -2 21 4 23 25 4 30 18 36 25 10 3 -11
5 -7 6 10 1 17 -3 26 -9 22 -14 -9 -12 9 2 23 7 7 13 29 15 50 1 20 9 42 18
49 13 8 14 16 7 29 -7 13 -5 25 6 43 15 24 15 25 0 13 -12 -9 -18 -10 -23 -2
-8 13 52 70 74 70 11 0 8 -7 -10 -27 -17 -20 -18 -23 -3 -10 29 24 41 21 18
-5 l-19 -22 32 23 c18 12 37 20 42 16 5 -3 12 -1 16 5 3 5 0 10 -7 10 -9 1 -7
5 5 14 9 7 17 17 17 22 0 4 -5 3 -12 -4 -13 -13 -48 -16 -48 -4 0 4 5 13 10
18 6 6 8 18 4 27 -4 12 -14 15 -37 10 -32 -6 -73 -33 -50 -33 7 0 15 5 18 10
9 15 55 12 55 -4 0 -9 -14 -15 -40 -18 -44 -4 -57 10 -40 43 14 25 -1 24 -23
-1 -18 -21 -33 -25 -41 -12 -8 14 34 54 50 48 8 -3 14 1 14 9 0 8 8 20 18 27
17 12 42 49 42 62 0 18 -20 1 -29 -24 -11 -32 -20 -37 -38 -19 -9 9 -4 18 18
37 16 13 27 27 24 30 -2 3 -14 -3 -24 -12 -19 -17 -41 -15 -41 4 0 4 25 33 56
64 33 33 50 56 41 56 -27 0 -30 21 -8 51 12 16 17 29 11 29 -5 0 -10 -4 -10
-10 0 -5 -4 -10 -9 -10 -6 0 -6 12 1 31 7 22 14 27 21 20 20 -20 28 -11 12 13
-12 18 -13 30 -6 50 11 28 26 34 35 14 4 -7 4 -3 2 9 -3 16 5 30 25 47 16 14
29 28 29 32 0 4 -9 -1 -20 -11 -28 -26 -45 -8 -29 31 6 16 13 23 16 17 3 -7 9
-13 14 -13 13 0 89 71 89 83 0 6 -9 1 -20 -11 -27 -29 -54 -30 -45 -1 5 14 4
19 -4 15 -12 -8 -4 21 12 42 7 9 13 9 23 1 10 -8 14 -8 14 -1 0 6 -6 15 -14
19 -11 6 0 35 50 138 79 163 79 161 59 145 -13 -11 -13 -8 1 26 17 43 39 72
29 39 -7 -20 -6 -20 9 -1 15 19 20 37 17 63 -1 7 8 31 19 54 12 22 19 43 16
46 -3 3 -9 -3 -13 -13 -3 -10 -19 -35 -35 -54 -16 -20 -23 -37 -17 -40 6 -4 5
-11 -4 -18 -11 -10 -13 -7 -12 16 3 35 25 83 36 76 5 -3 9 4 9 15 0 11 10 36
21 56 12 20 19 38 16 41 -3 3 -13 -8 -21 -25 -9 -17 -28 -38 -41 -47 -14 -9
-46 -50 -71 -90 -25 -41 -48 -74 -49 -74 -2 0 7 27 21 60 13 33 24 73 24 89 0
27 25 176 36 214 5 16 -155 17 -3268 17 -2606 0 -3277 -3 -3287 -12 -11 -10
-14 -10 -18 0 -3 8 -33 12 -99 12 -52 0 -94 -3 -94 -6z m5325 -663 c-3 -5 -1
-12 5 -16 6 -4 8 -11 5 -16 -4 -5 -2 -9 4 -9 5 0 11 5 13 12 4 12 48 19 48 7
0 -8 52 -5 68 5 7 4 12 1 12 -7 0 -10 12 -13 40 -13 31 1 41 -3 46 -17 3 -10
8 -16 11 -13 10 9 33 -43 26 -59 -3 -11 -1 -13 10 -10 8 4 17 -1 21 -11 6 -16
7 -16 19 0 12 16 14 14 25 -21 9 -31 18 -98 23 -168 1 -20 -11 -171 -16 -197
-3 -16 -7 -38 -9 -50 -10 -66 -30 -146 -41 -168 -7 -14 -13 -41 -13 -60 0 -43
-7 -104 -14 -116 -10 -20 -9 -126 2 -139 7 -8 9 -19 6 -24 -4 -5 0 -27 8 -48
8 -21 22 -67 30 -102 9 -35 30 -95 46 -135 48 -111 90 -310 90 -419 0 -105 -8
-167 -22 -167 -5 0 -6 6 -2 13 4 6 -2 4 -13 -6 -11 -9 -23 -14 -28 -10 -4 5
-4 -3 -1 -17 5 -17 4 -21 -2 -11 -8 11 -11 11 -18 -1 -14 -23 -49 -31 -64 -13
-10 12 -7 19 19 41 17 14 31 31 31 36 0 6 -9 3 -20 -7 -11 -10 -20 -13 -20 -8
0 6 7 16 15 23 9 7 12 22 9 40 -4 15 -1 31 5 34 6 4 11 11 11 16 0 10 -19 8
-37 -3 -20 -13 -15 8 6 27 10 10 21 27 24 38 5 16 -1 12 -23 -13 -33 -38 -41
-31 -10 8 11 14 20 33 19 42 0 10 -2 12 -6 4 -2 -7 -13 -13 -23 -13 -10 0 -20
-6 -23 -12 -2 -7 -8 -10 -12 -6 -4 4 0 19 9 32 20 32 21 56 0 30 -11 -13 -17
-15 -20 -6 -3 6 -14 12 -25 12 -16 0 -18 5 -12 28 4 15 7 37 7 50 0 12 4 22 8
22 4 0 8 8 8 18 0 14 -2 15 -10 2 -7 -12 -13 -10 -33 11 -13 15 -30 41 -37 60
-8 19 -21 39 -30 46 -16 13 -70 14 -70 1 0 -5 -19 5 -42 22 -22 16 -46 30 -52
29 -7 0 -7 -2 1 -5 7 -3 10 -11 7 -19 -3 -7 5 -23 18 -35 l23 -21 -25 9 c-14
5 -30 7 -37 5 -6 -2 -15 1 -19 8 -5 9 -2 10 9 6 10 -3 17 -3 17 2 0 5 -9 11
-20 14 -11 3 -18 1 -14 -4 3 -5 -3 -9 -12 -9 -16 0 -16 -1 2 -16 10 -8 12 -13
4 -9 -8 4 -6 -1 5 -11 l20 -16 -20 5 c-11 2 -28 8 -37 12 -10 4 -18 3 -18 -2
0 -5 12 -14 28 -21 18 -7 20 -9 5 -6 -46 11 -148 14 -133 4 12 -8 8 -10 -15
-11 -16 -1 -2 -5 33 -9 35 -4 68 -13 75 -20 10 -10 7 -11 -13 -5 -14 4 -47 10
-74 12 -40 4 -48 2 -43 -9 4 -11 -2 -14 -24 -13 -17 1 -33 -3 -36 -8 -3 -6 -1
-7 5 -3 7 4 12 2 12 -3 0 -6 10 -11 23 -11 26 -1 64 -27 53 -37 -3 -4 -19 0
-34 9 -35 20 -90 30 -97 18 -3 -6 3 -10 15 -10 12 0 19 -4 16 -9 -3 -4 -22 -7
-43 -5 -26 2 -33 0 -23 -7 13 -8 12 -12 -4 -24 -11 -8 -25 -15 -31 -15 -7 0
-27 -7 -45 -16 l-33 -17 24 -13 24 -13 -24 -1 c-31 0 -91 -21 -91 -32 0 -4 7
-5 15 -2 8 4 15 4 15 1 0 -3 -15 -10 -32 -16 -26 -9 -30 -9 -20 1 6 6 12 17
12 22 0 6 -11 -2 -25 -17 -14 -15 -30 -27 -36 -27 -6 0 -7 -5 -3 -11 5 -8 1
-8 -14 0 -17 9 -25 5 -56 -29 -20 -22 -40 -40 -46 -40 -5 0 -10 -5 -10 -11 0
-5 -4 -7 -10 -4 -6 4 -5 18 4 40 8 18 12 36 8 39 -3 3 0 6 6 6 7 0 12 8 12 19
0 22 -30 33 -47 17 -27 -25 -43 -36 -51 -36 -5 0 -14 -11 -20 -25 -10 -21 -9
-25 4 -25 13 0 11 -7 -10 -34 -14 -19 -26 -43 -26 -53 0 -21 -52 -70 -79 -75
-11 -2 -28 6 -40 16 -12 11 -24 16 -27 13 -4 -3 7 -18 22 -32 l29 -26 -40 23
c-55 31 -72 48 -56 57 7 5 14 17 15 27 2 12 10 18 21 16 15 -3 15 -1 -2 17
-14 16 -30 21 -56 19 -22 -2 -35 -7 -33 -14 3 -7 -6 -10 -24 -8 -22 3 -28 0
-24 -11 4 -8 1 -15 -5 -15 -6 0 -11 6 -11 13 0 8 -3 8 -9 -2 -5 -8 -16 -11
-25 -8 -9 4 -16 2 -16 -3 0 -6 4 -10 9 -10 5 0 12 -7 15 -16 5 -13 4 -14 -7
-6 -8 7 -17 8 -21 4 -10 -9 -116 -9 -116 0 0 4 12 10 28 14 42 9 50 14 16 11
-36 -4 -50 9 -46 40 2 14 -4 27 -16 34 -15 9 -18 18 -12 33 4 12 5 27 2 35 -2
8 0 11 5 8 5 -3 14 3 21 13 7 11 8 21 2 25 -5 3 -14 -3 -20 -12 -11 -17 -11
-17 -6 0 8 24 -23 85 -34 67 -6 -9 -17 0 -40 31 -18 24 -34 49 -37 56 -3 7
-14 15 -25 19 -11 3 -17 8 -15 11 3 2 15 0 26 -7 15 -8 21 -8 21 0 0 8 11 9
33 5 17 -4 37 -8 42 -9 6 0 15 -9 21 -19 9 -16 12 -17 23 -3 9 11 19 13 36 6
17 -6 27 -5 36 6 9 11 30 13 95 10 48 -3 86 -1 89 4 4 6 21 10 38 10 18 0 55
7 82 15 28 9 52 16 55 16 3 1 15 5 28 10 13 5 38 11 55 13 41 5 67 16 67 27 0
4 8 6 18 2 9 -3 14 -3 10 2 -9 9 31 47 42 40 9 -6 45 33 38 41 -3 3 -13 -3
-22 -12 -11 -11 -38 -18 -77 -20 -33 -1 -66 -7 -73 -13 -7 -6 -35 -14 -62 -17
-26 -3 -56 -10 -65 -15 -22 -11 -51 -1 -42 15 3 6 -3 2 -15 -8 -14 -12 -22
-14 -22 -7 0 9 -4 8 -14 -2 -11 -11 -25 -13 -58 -6 -24 4 -50 9 -58 9 -13 1
-13 2 0 7 8 3 23 14 34 25 11 10 25 18 32 18 9 0 9 6 1 24 -7 14 -17 22 -27
19 -13 -4 -13 -4 0 6 25 18 50 13 50 -10 0 -22 21 -22 28 1 3 8 0 10 -8 5 -9
-5 -11 -4 -6 3 14 24 33 13 28 -15 -5 -25 -3 -26 10 -15 11 9 18 10 23 2 3 -5
11 -10 17 -10 6 0 6 6 -2 15 -11 13 -10 14 2 10 8 -3 23 3 33 15 10 11 24 20
32 20 8 0 11 5 8 10 -3 6 3 10 14 10 12 0 21 4 21 10 0 5 8 6 17 3 12 -5 15
-2 10 9 -4 12 -1 14 14 11 11 -3 27 2 37 11 9 9 26 24 37 32 11 9 14 12 6 8
-10 -5 -12 -3 -7 5 5 7 14 10 22 7 16 -6 17 -4 8 18 -5 13 -10 12 -40 -5 -19
-10 -36 -19 -39 -19 -3 0 -14 0 -26 0 -11 0 -18 -4 -15 -8 3 -5 0 -9 -7 -10
-62 -5 -84 -9 -94 -15 -7 -5 -17 -5 -23 -2 -5 3 -10 0 -10 -7 0 -9 -3 -9 -10
2 -9 13 -11 13 -20 0 -8 -13 -10 -12 -10 3 0 10 -4 15 -10 12 -5 -3 -10 -1
-10 5 0 8 9 10 23 6 18 -4 25 0 35 22 7 15 20 40 28 55 12 21 13 32 5 40 -8 8
-11 6 -11 -6 0 -21 -33 -22 -50 -2 -8 10 -20 13 -34 9 -12 -4 -27 -7 -33 -7
-7 0 -13 -4 -13 -8 0 -4 -9 -5 -20 -2 -15 4 -20 0 -20 -13 0 -15 -2 -16 -9 -5
-5 8 -14 10 -22 6 -8 -5 -11 -5 -7 -1 4 5 -5 19 -20 32 -15 13 -21 24 -14 24
7 0 10 5 7 10 -4 6 -15 1 -26 -12 l-20 -23 11 23 c7 15 7 22 0 22 -5 0 -16
-14 -23 -32 -9 -21 -16 -28 -21 -20 -4 7 -2 12 4 12 6 0 8 5 5 10 -4 6 -14 1
-25 -12 -15 -19 -20 -20 -33 -9 -12 9 -21 10 -36 2 -30 -17 -64 -14 -57 4 6
17 -9 21 -19 5 -4 -6 -11 -8 -16 -4 -5 3 -6 11 -2 17 5 9 3 9 -8 1 -11 -8 -18
-6 -32 9 -19 19 -18 19 5 12 l23 -6 -25 20 c-35 28 -18 41 63 44 37 1 67 5 67
9 0 4 7 5 15 1 9 -3 24 2 33 11 10 8 44 18 75 21 31 3 69 10 83 15 14 6 36 10
50 10 13 0 24 3 24 8 0 4 10 8 23 9 92 6 166 27 198 57 13 12 32 25 42 29 9 3
17 11 17 18 0 7 -7 8 -17 4 -10 -5 -50 -9 -89 -11 -39 -2 -75 -4 -80 -5 -5 -1
-17 1 -27 6 -10 4 -24 2 -34 -6 -14 -12 -16 -12 -11 1 4 11 -2 15 -19 16 -19
2 -22 -1 -12 -12 9 -11 9 -14 -1 -14 -6 0 -17 14 -23 30 -6 17 -14 30 -18 30
-4 0 -5 9 -2 20 3 11 12 20 21 20 13 0 13 2 -3 13 -20 15 -5 34 17 21 6 -4 8
-3 5 4 -9 13 2 44 13 37 4 -3 37 23 74 58 36 34 66 58 66 52 0 -5 14 5 31 23
36 38 48 42 25 7 -30 -45 -16 -35 67 52 45 47 81 89 80 94 -2 4 12 13 31 19
28 9 33 15 30 38 -2 15 -1 21 2 15 8 -18 24 -16 24 3 0 10 6 14 15 11 9 -4 23
8 40 36 13 23 25 36 25 30 0 -21 17 -15 50 17 17 17 35 28 40 25 5 -3 17 6 26
20 16 25 41 36 29 13 -4 -7 1 -4 9 6 16 19 16 19 16 -5 1 -23 1 -23 12 -4 22
40 41 56 50 43 6 -10 15 -6 33 15 17 19 25 23 25 13 0 -9 5 -16 10 -16 6 0 8
12 5 28 -5 21 -4 24 4 10 6 -9 19 -15 29 -13 9 2 27 4 39 4 12 1 28 7 35 14 7
7 24 13 38 14 14 1 33 12 43 25 15 18 20 19 27 8 7 -11 10 -7 15 13 4 15 10
25 14 23 4 -3 18 4 31 15 27 20 45 25 35 10z m-4944 -51 c22 -22 45 -40 52
-40 7 0 21 -13 30 -30 10 -16 15 -30 12 -30 -3 0 6 -16 21 -35 26 -34 27 -71
1 -62 -6 2 -19 -2 -29 -10 -11 -10 -18 -11 -23 -4 -3 6 -1 11 4 11 6 0 11 9
11 21 0 19 -4 20 -40 14 -35 -6 -40 -4 -40 12 0 37 -22 96 -44 118 -14 14 -20
28 -16 36 5 7 6 18 3 26 -10 26 19 12 58 -27z m-175 -21 c0 -14 10 -39 22 -56
24 -34 27 -54 11 -70 -8 -8 -6 -18 6 -37 10 -15 15 -37 13 -51 -3 -14 -2 -25
2 -25 8 0 60 -78 60 -90 0 -5 -11 -17 -25 -28 -16 -13 -25 -30 -25 -48 0 -31
-25 -64 -50 -64 -13 0 -16 9 -15 36 0 19 -3 38 -7 41 -5 2 1 20 13 40 22 34
22 35 3 89 -26 76 -39 73 -35 -8 3 -40 -13 -78 -32 -78 -7 0 -23 7 -35 16 -18
12 -20 19 -12 29 17 21 3 37 -20 25 -15 -8 -22 -5 -34 12 -9 12 -16 26 -16 31
0 14 69 77 84 77 8 0 18 5 21 10 3 6 -4 10 -17 10 -18 0 -26 8 -34 35 -10 32
-10 35 7 30 11 -4 19 -2 19 3 0 5 16 5 40 -1 45 -13 60 -5 36 18 -9 9 -16 22
-16 29 0 8 -7 19 -15 26 -21 17 -8 32 23 28 21 -2 27 -8 28 -29z m109 -619
c10 -11 24 -20 32 -20 7 0 13 -5 13 -11 0 -5 -4 -8 -8 -5 -4 2 -8 -12 -8 -32
0 -25 6 -44 20 -57 18 -17 66 -122 66 -144 0 -25 -174 12 -199 43 -8 10 0 12
38 12 27 -1 55 5 65 13 15 13 15 15 0 33 -16 17 -16 19 2 33 19 14 11 20 -24
16 -9 -2 -12 10 -11 36 2 21 -3 48 -9 60 -24 43 -9 58 23 23z m3346 -890 c14
-8 19 -7 19 2 0 6 12 0 28 -14 21 -21 31 -25 45 -17 22 13 49 -5 40 -27 -3 -8
0 -14 6 -14 7 0 9 -9 6 -22 -4 -19 -13 -110 -14 -155 -1 -7 -5 -13 -9 -13 -5
0 -9 19 -10 42 -1 23 -4 44 -7 47 -6 6 -32 12 -58 14 -10 1 -15 7 -13 13 2 6
-11 25 -29 42 -33 28 -33 30 -13 35 18 5 19 9 9 21 -7 8 -10 20 -7 25 4 5 -2
14 -11 20 -23 14 -7 14 18 1z m-296 -42 c4 -13 8 -31 9 -40 4 -26 16 -35 25
-19 7 11 10 11 16 0 7 -10 10 -9 14 5 6 14 11 12 39 -15 17 -17 32 -37 32 -44
0 -8 12 -37 27 -66 23 -47 26 -64 25 -143 -3 -101 -11 -127 -32 -101 -15 19
-15 16 -32 95 -7 30 -16 58 -20 61 -4 3 -9 18 -11 35 -4 32 -25 75 -44 87 -16
10 -63 104 -56 111 4 3 0 6 -7 6 -7 0 -10 3 -7 7 4 3 0 15 -10 25 -15 17 -15
18 4 18 13 0 23 -9 28 -22z m-2298 -112 c-3 -6 1 -20 8 -30 10 -13 21 -16 49
-11 24 5 36 4 36 -4 0 -6 10 -16 23 -21 20 -8 20 -9 2 -10 -20 -1 -20 -1 -1
-15 11 -8 16 -15 12 -15 -4 0 -4 -6 0 -12 5 -7 9 -21 9 -32 1 -10 10 -25 20
-32 16 -12 5 -14 -82 -14 -56 0 -104 4 -108 10 -3 5 8 16 26 25 17 9 28 19 25
22 -3 3 -23 -6 -44 -21 -41 -28 -66 -32 -107 -16 l-27 10 24 20 c23 19 21 22
-17 24 -11 1 -19 7 -17 14 1 6 -5 12 -13 12 -8 0 -15 -7 -15 -15 0 -20 -34
-19 -51 1 -11 14 -11 18 2 28 8 6 18 19 22 29 8 22 45 22 70 0 18 -17 20 -17
38 6 10 13 19 33 19 45 0 19 4 21 51 17 34 -2 49 -7 46 -15z m4278 -366 c17
-33 53 -41 77 -16 8 7 23 16 35 20 26 8 57 -28 75 -85 13 -45 25 -50 34 -14 3
14 10 25 16 25 5 0 8 -3 6 -7 -23 -48 -34 -69 -38 -73 -9 -8 -84 -120 -95
-140 -5 -11 -19 -24 -31 -31 -12 -6 -25 -20 -27 -30 -3 -11 -12 -19 -21 -19
-9 0 -16 -4 -16 -9 0 -11 -100 -74 -117 -74 -7 0 -13 -3 -13 -7 0 -10 -97 -39
-153 -46 -27 -3 -60 -10 -74 -15 -21 -8 -24 -7 -19 6 5 13 2 14 -15 5 -15 -8
-24 -8 -33 -1 -8 6 -22 8 -31 4 -14 -5 -16 -3 -10 7 5 9 4 11 -4 6 -9 -6 -9
-11 0 -22 9 -11 8 -14 -5 -14 -9 0 -16 4 -16 9 0 14 -61 32 -89 26 -13 -2 -44
4 -68 15 -23 10 -43 16 -43 11 0 -4 -16 -8 -37 -8 -21 -1 -40 -7 -45 -17 -8
-14 -36 -12 -48 4 -8 11 -71 30 -65 20 4 -6 12 -10 19 -10 16 0 41 -28 33 -37
-4 -3 -14 0 -22 7 -9 8 -42 15 -73 17 -37 2 -59 9 -65 19 -5 9 -16 13 -28 9
-12 -4 -19 -2 -19 7 0 10 -3 9 -10 -2 -8 -12 -10 -12 -15 2 -8 21 38 71 52 57
7 -7 20 0 41 19 23 22 41 29 67 29 19 -1 35 -4 35 -8 0 -4 10 -5 21 -2 21 6
21 6 -2 19 l-24 13 31 1 c16 0 39 7 50 15 22 17 64 20 64 5 0 -7 7 -7 21 1 12
6 34 8 50 5 35 -7 39 11 4 20 -42 10 -28 25 18 18 23 -3 48 -7 55 -10 7 -2 11
0 7 5 -3 5 -19 12 -35 16 -27 6 -42 24 -22 26 4 0 16 2 27 4 11 1 46 6 77 9
61 6 108 23 108 38 0 5 -10 6 -21 3 -15 -5 -19 -4 -15 4 4 6 22 11 40 11 31 0
128 51 175 92 47 40 61 35 16 -6 -55 -50 -53 -64 2 -16 18 17 43 30 53 30 11
0 20 4 20 9 0 16 52 23 61 9 5 -7 9 -8 9 -3 -1 16 -26 45 -41 45 -18 0 1 17
26 23 48 12 65 7 80 -23z m-1505 -295 c17 -1 82 -55 67 -55 -4 0 -3 -9 3 -20
6 -11 17 -20 24 -20 8 0 16 -7 20 -15 3 -8 12 -15 21 -15 22 0 19 -52 -6 -94
-21 -36 -24 -107 -4 -112 6 -2 19 11 31 29 13 20 27 31 38 29 10 -2 16 1 13 5
-3 5 7 14 24 20 34 13 38 5 9 -20 -11 -9 -20 -26 -20 -37 0 -24 4 -24 33 -7
12 8 36 13 52 12 76 -4 123 -58 126 -144 2 -58 -9 -73 -98 -127 -25 -15 -62
-53 -89 -92 -58 -83 -68 -94 -59 -64 11 39 -9 24 -39 -29 -15 -28 -44 -67 -62
-86 -19 -19 -32 -38 -29 -43 3 -5 -7 -7 -22 -5 -34 4 -50 -4 -32 -16 9 -6 0
-6 -21 -3 -19 4 -53 20 -74 35 -22 16 -47 29 -55 29 -13 0 -13 -2 -3 -9 11 -7
11 -9 -1 -14 -17 -6 -67 37 -67 58 0 8 -4 15 -10 15 -5 0 -10 9 -10 20 0 11
-4 20 -10 20 -5 0 -10 7 -10 15 0 8 -3 15 -7 15 -5 0 -17 19 -28 42 -16 33
-17 42 -6 46 11 4 11 6 0 13 -30 18 5 22 51 5 47 -17 53 -17 84 -2 19 9 39 16
45 16 6 0 11 8 11 18 0 13 -2 14 -9 3 -5 -8 -11 -9 -15 -3 -3 5 10 17 29 26
35 17 50 34 19 22 -12 -4 -15 -2 -10 9 3 9 0 15 -9 15 -14 0 -20 -12 -16 -33
1 -5 -6 -7 -14 -5 -9 2 -15 7 -15 12 1 5 -4 13 -12 17 -9 6 -5 9 13 9 15 0 29
7 33 15 3 8 11 15 18 15 9 0 8 -3 -2 -10 -12 -8 -10 -10 8 -10 20 0 22 4 16
23 -3 12 -11 29 -17 37 -9 12 -9 13 3 3 14 -13 39 -19 27 -7 -3 4 -2 15 4 25
8 15 6 19 -7 19 -10 0 -14 3 -11 7 4 3 2 12 -4 20 -9 10 -8 13 4 13 8 0 18 -6
21 -12 4 -7 4 -3 2 10 -2 12 0 22 4 22 16 0 -3 40 -19 41 -11 0 -9 3 7 9 12 5
22 12 22 16 0 3 -7 4 -14 1 -9 -4 -17 2 -21 14 -5 15 -10 17 -20 9 -9 -7 -16
-6 -26 7 -12 15 -12 16 4 10 11 -4 16 -3 12 3 -3 6 -13 10 -21 10 -8 0 -14 5
-14 11 0 6 7 9 15 5 21 -8 19 4 -5 24 -13 11 -17 21 -11 25 8 4 6 15 -3 33
-12 24 -11 29 5 46 15 15 16 22 7 28 -7 4 -8 8 -3 8 6 0 4 4 -4 9 -12 8 -12
12 -2 25 7 8 10 19 8 23 -3 5 10 7 29 5 21 -3 34 0 34 7 0 7 10 5 26 -6 15 -9
34 -17 44 -18z m1474 -300 c3 -8 13 -15 22 -15 15 0 14 -4 -6 -25 -13 -14 -30
-25 -38 -25 -9 0 -12 -6 -8 -16 3 -8 -6 -39 -22 -67 -29 -56 -29 -56 -112 -40
l-35 7 40 6 c39 6 39 6 15 17 -14 6 -33 14 -44 17 -27 9 -3 34 40 42 25 5 47
21 80 60 49 57 59 63 68 39z m-879 -307 c11 1 30 -8 42 -20 13 -12 23 -16 23
-10 0 7 8 12 17 12 13 0 14 -3 5 -12 -8 -8 -9 -15 -1 -25 8 -9 7 -14 -5 -19
-9 -3 -13 -10 -10 -15 3 -5 13 -5 24 1 27 14 34 12 16 -5 -8 -8 -22 -15 -30
-15 -9 0 -16 -4 -16 -9 0 -15 -76 -59 -114 -67 -25 -4 -36 -11 -32 -20 8 -20
-252 -172 -268 -156 -3 3 -6 0 -6 -6 0 -6 -17 -16 -37 -23 -21 -7 -49 -19 -63
-28 -24 -15 -25 -15 -9 4 9 11 20 30 23 42 4 13 13 20 20 17 7 -3 16 2 20 11
3 9 16 16 28 15 36 -3 44 0 28 10 -13 8 -12 10 3 10 9 0 17 7 17 14 0 8 12 22
28 30 75 41 71 40 92 21 16 -14 23 -16 32 -7 9 9 7 12 -10 12 -13 0 -22 6 -22
15 0 8 -7 15 -16 15 -41 0 -94 24 -94 42 0 10 -6 18 -12 19 -10 0 -10 2 0 6 6
2 12 9 12 15 0 17 34 53 50 53 8 0 21 -4 28 -9 17 -10 42 0 42 18 0 7 7 17 16
20 10 4 14 14 11 25 -4 17 1 19 43 16 26 -2 53 1 61 6 8 5 21 6 29 3 8 -4 24
-6 35 -6z m-3307 -186 c76 -62 166 -108 131 -66 -11 13 -9 14 17 8 16 -3 33
-10 38 -15 5 -4 14 -5 21 -3 7 3 16 1 20 -5 4 -7 -3 -11 -18 -11 -27 0 -45
-29 -25 -41 16 -10 31 0 24 17 -4 10 3 14 21 14 l26 0 -23 -25 c-13 -14 -30
-25 -38 -25 -7 0 -12 -6 -9 -12 2 -7 10 -13 18 -13 8 0 17 -3 20 -8 3 -4 14 2
25 14 17 20 17 22 2 16 -28 -10 -21 9 15 38 18 16 24 24 13 21 -16 -5 -17 -4
-6 8 10 14 14 14 27 1 8 -8 11 -19 8 -25 -3 -5 1 -10 9 -10 30 0 26 -21 -8
-41 -19 -11 -41 -34 -48 -50 -7 -16 -30 -41 -50 -54 -40 -27 -53 -31 -43 -15
9 14 -2 12 -30 -6 -13 -9 -30 -14 -37 -11 -8 4 -7 6 4 6 11 1 15 6 12 16 -4
11 -2 13 9 9 9 -3 23 6 36 24 l21 30 -25 0 c-22 0 -24 -3 -13 -16 11 -13 10
-14 -2 -10 -8 3 -23 -1 -32 -10 -16 -14 -18 -13 -18 2 0 9 5 14 10 11 16 -10
11 27 -7 47 -9 10 -23 18 -31 18 -9 0 -6 -7 9 -19 19 -15 21 -22 12 -32 -6 -6
-9 -19 -5 -28 5 -14 3 -14 -21 2 -14 9 -34 17 -43 17 -14 0 -16 8 -12 43 l5
43 -42 13 c-47 14 -55 28 -55 94 0 41 14 77 31 77 6 0 31 -17 57 -38z m4147
-129 c-2 -16 -10 -68 -16 -118 -10 -81 -69 -284 -89 -310 -5 -5 -70 -131 -145
-280 -206 -407 -292 -569 -303 -573 -6 -2 -13 2 -17 7 -13 22 -24 11 -15 -15
17 -43 11 -51 -14 -20 -22 28 -24 29 -34 10 -6 -10 -14 -17 -19 -14 -4 3 -9
-15 -10 -40 -4 -55 -23 -120 -36 -120 -5 0 -7 12 -3 28 3 15 10 52 15 82 10
58 36 120 52 120 5 0 9 4 9 10 0 24 162 293 289 480 40 59 194 325 212 367 19
44 62 223 55 230 -1 2 -11 -15 -21 -38 -22 -47 -63 -85 -78 -70 -7 7 -4 19 7
36 10 15 15 33 12 40 -4 11 68 117 111 163 6 6 15 21 18 32 10 30 25 24 20 -7z
m-617 -80 c-27 -32 -34 -50 -11 -30 11 9 26 17 33 17 9 0 7 -5 -6 -16 -18 -15
-18 -15 4 -9 20 6 33 -9 14 -17 -4 -1 -22 -25 -40 -52 -18 -27 -50 -69 -73
-93 -25 -26 -39 -50 -35 -59 3 -8 -2 -23 -12 -33 -9 -10 -33 -39 -52 -65 -39
-53 -66 -81 -79 -81 -4 0 -36 -28 -71 -62 -35 -35 -67 -63 -72 -63 -5 0 -29
-16 -52 -35 -24 -19 -46 -35 -50 -35 -14 0 -5 43 14 67 11 14 20 32 20 40 0
11 -5 11 -30 -2 -17 -9 -30 -21 -28 -28 4 -21 -13 -57 -26 -57 -7 0 -22 14
-35 31 -19 25 -28 30 -59 27 -27 -2 -36 -7 -33 -18 7 -29 9 -60 4 -60 -3 0
-12 8 -19 18 -10 13 -17 15 -30 7 -19 -12 -110 12 -118 31 -3 7 3 10 15 7 10
-3 19 -1 19 5 0 6 30 13 68 17 141 14 269 57 312 105 3 3 23 18 45 35 74 54
216 208 338 364 26 33 50 61 54 61 3 0 -1 -8 -9 -17z m-238 -38 c-7 -8 -10
-24 -7 -35 3 -11 1 -20 -3 -20 -14 0 -27 -54 -22 -96 4 -39 0 -45 -49 -95 -48
-49 -54 -52 -57 -32 -2 12 5 39 14 59 17 36 17 37 -6 54 -17 13 -21 22 -15 36
4 11 9 25 11 32 1 7 10 25 19 39 9 14 12 22 6 19 -6 -4 -11 -4 -11 1 0 8 122
62 129 56 2 -1 -2 -9 -9 -18z m-4076 -94 c28 -18 35 -18 71 -5 22 7 47 11 55
9 22 -7 72 -124 73 -170 0 -22 -1 -68 -4 -103 -4 -60 -5 -63 -34 -71 -16 -4
-31 -7 -33 -6 -8 6 14 38 32 45 18 8 16 9 -12 9 -35 1 -37 -2 -46 -63 -5 -38
-5 -38 15 -21 10 10 22 15 27 11 8 -8 -112 -126 -128 -126 -6 0 -10 7 -10 15
0 8 5 15 12 15 6 0 26 12 45 26 27 21 32 29 22 40 -6 8 -9 23 -6 34 3 11 1 17
-4 14 -5 -3 -12 2 -15 10 -3 9 -13 16 -20 16 -8 0 -17 6 -20 14 -8 20 -36 25
-91 15 -26 -5 -64 -7 -84 -4 l-35 6 8 77 c9 84 17 106 62 167 53 71 68 77 120
46z m4471 -13 l-6 -33 26 30 c33 39 32 30 -6 -46 -35 -70 -114 -159 -142 -159
-10 0 -15 -5 -12 -11 9 -14 -24 -44 -58 -53 -27 -6 -27 -6 -10 16 10 12 30 33
45 47 15 14 34 42 43 61 18 42 34 67 58 94 9 11 27 35 40 53 12 18 23 33 25
33 2 0 1 -15 -3 -32z m518 -55 c21 -45 22 -62 21 -278 0 -206 1 -223 11 -160
13 75 12 301 0 350 -4 17 -5 27 -1 24 4 -4 8 -15 10 -25 3 -11 13 -53 24 -94
11 -41 23 -88 25 -105 16 -91 91 -418 113 -495 29 -96 50 -173 60 -215 1 -5
11 -48 23 -95 12 -47 23 -94 25 -106 2 -11 9 -41 16 -65 24 -92 32 -123 36
-143 2 -12 14 -64 26 -116 12 -52 21 -99 20 -103 -1 -4 2 -16 7 -25 17 -33 40
-197 42 -304 1 -85 -2 -113 -15 -133 -9 -14 -13 -25 -10 -25 4 0 0 -8 -8 -17
-19 -21 -28 -99 -16 -132 5 -15 4 -28 -3 -37 -9 -11 -8 -14 2 -15 10 0 11 -2
1 -6 -6 -2 -10 -8 -7 -13 5 -8 -52 -136 -72 -163 -5 -7 -15 -31 -23 -54 -7
-24 -17 -43 -22 -43 -4 0 -8 -9 -8 -20 0 -10 -8 -24 -17 -29 -10 -6 -14 -11
-9 -11 5 0 2 -8 -5 -17 -12 -14 -12 -16 1 -8 8 5 5 -4 -8 -19 -12 -16 -20 -32
-17 -36 3 -4 -2 -10 -10 -14 -9 -3 -12 -12 -9 -21 4 -9 -1 -21 -11 -29 -10 -7
-15 -18 -11 -25 4 -6 0 -14 -8 -17 -9 -3 -13 -10 -10 -15 3 -5 1 -9 -4 -9 -5
0 -20 -21 -33 -47 -23 -47 -49 -82 -49 -67 0 4 -9 -3 -20 -16 -11 -13 -20 -20
-20 -17 0 4 -8 0 -17 -8 -10 -8 -21 -15 -25 -15 -5 0 -17 -9 -29 -21 -11 -11
-27 -18 -35 -15 -9 4 -12 2 -8 -5 4 -8 -1 -9 -15 -4 -11 3 -21 2 -21 -3 0 -5
-48 -9 -110 -8 -60 0 -110 4 -110 8 0 4 -7 4 -17 1 -12 -5 -14 -3 -8 8 8 12 6
12 -8 0 -9 -7 -17 -9 -17 -4 0 6 -11 9 -25 8 -14 -2 -25 1 -25 7 0 6 -11 8
-25 4 -16 -4 -25 -2 -25 5 0 8 -4 8 -12 2 -17 -13 -168 -14 -168 -2 0 6 -13 8
-30 5 -19 -2 -30 0 -30 7 0 7 -7 4 -14 -6 -12 -15 -15 -16 -26 -2 -9 11 -16
12 -25 5 -8 -7 -21 -7 -38 -1 -19 8 -27 6 -31 -5 -5 -12 -9 -12 -26 -2 -11 7
-20 18 -20 25 0 7 -4 13 -10 13 -14 0 -13 -13 2 -28 16 -16 3 -26 -19 -13 -11
6 -13 11 -5 11 7 0 10 4 7 10 -3 5 -1 18 4 29 9 16 7 19 -15 19 -15 0 -21 -3
-16 -7 7 -4 8 -12 2 -21 -6 -9 -10 -10 -10 -3 0 6 -7 19 -16 27 -8 9 -11 16
-5 16 6 0 11 9 11 21 0 13 -4 18 -12 13 -8 -5 -9 -2 -4 12 5 10 9 26 10 34 0
8 9 22 19 31 9 9 17 20 17 25 0 5 17 20 38 34 20 14 39 27 42 30 10 11 128 70
140 70 12 0 162 67 215 97 17 9 48 26 70 37 22 12 42 24 45 27 3 4 26 20 53
37 50 31 91 75 80 86 -14 14 -91 4 -238 -29 -85 -19 -164 -39 -175 -45 -11 -6
-20 -8 -20 -6 0 3 -19 -1 -41 -9 -23 -8 -56 -15 -74 -15 -31 0 -32 1 -31 39 2
39 16 66 57 112 79 87 95 122 55 118 -12 0 -34 -1 -49 0 -28 1 -28 2 -22 48
l6 48 -19 -40 c-11 -22 -27 -49 -36 -60 -17 -20 -17 -19 -10 5 6 21 5 23 -8
13 -11 -10 -19 -9 -34 2 -16 10 -20 23 -18 52 6 77 15 129 30 173 21 67 79
181 87 173 12 -11 8 -67 -8 -120 -26 -87 -36 -154 -25 -172 8 -13 9 -12 10 10
0 14 8 50 17 80 9 30 17 63 18 74 4 47 4 46 38 29 17 -10 64 -19 102 -22 66
-4 73 -2 104 23 26 23 31 33 26 53 -3 14 -12 31 -20 36 -7 6 -21 56 -30 111
-9 55 -18 102 -20 106 -2 3 -6 37 -10 75 -3 38 -9 96 -15 129 -5 33 -11 96
-13 140 l-5 80 15 -47 c16 -55 27 -61 30 -18 1 17 13 40 28 54 14 13 25 27 25
32 0 5 27 38 59 73 53 57 63 75 92 165 34 105 74 186 90 186 6 0 8 4 4 10 -3
5 2 17 12 27 10 10 36 53 57 95 38 75 39 78 21 98 -23 25 -13 49 24 56 17 4
37 17 46 30 8 13 13 24 10 24 -3 0 -1 8 4 18 10 18 51 229 58 297 2 22 5 74 6
116 2 85 7 84 50 -8z m-1116 26 c-4 -28 -11 -57 -18 -65 -9 -11 -6 -16 13 -23
28 -11 43 -27 53 -59 5 -18 0 -31 -22 -54 -31 -34 -96 -67 -129 -68 -20 0 -22
4 -19 49 4 54 21 88 47 96 9 3 22 13 30 22 10 13 10 15 0 9 -21 -12 -59 2 -65
24 -4 14 0 20 11 20 15 0 15 2 2 10 -8 5 -10 10 -5 10 6 0 15 10 20 23 8 17
66 57 84 57 2 0 1 -23 -2 -51z m-3485 -70 c10 -5 18 -17 18 -27 0 -9 16 -37
35 -61 40 -50 40 -49 19 -79 -10 -14 -25 -22 -45 -22 -32 0 -39 -14 -12 -24
15 -6 15 -8 2 -22 -14 -13 -22 -11 -77 13 -55 25 -61 31 -61 58 -1 17 10 60
23 97 18 50 21 70 12 78 -8 10 -2 11 29 5 22 -4 48 -11 57 -16z m3339 -106 c6
-16 8 -42 6 -59 -3 -18 -1 -36 4 -41 10 -10 -64 -38 -131 -49 -32 -5 -34 -4
-17 9 14 11 16 20 9 34 -26 51 32 120 111 132 4 0 12 -11 18 -26z m-4274 -333
c3 -10 13 -22 24 -25 24 -8 32 -37 18 -68 -13 -30 -20 -33 -81 -42 -45 -7 -46
-6 -50 24 -3 19 0 32 9 35 24 10 32 49 14 70 -15 18 -15 19 6 14 13 -4 26 -2
29 3 9 15 26 10 31 -11z m4607 -74 c-11 -8 -37 -19 -59 -25 -66 -18 -76 -30
-21 -27 26 2 64 0 84 -5 30 -7 42 -5 64 11 20 15 26 16 22 5 -4 -8 -11 -15
-17 -15 -7 0 -7 -4 1 -12 18 -18 15 -24 -24 -47 -20 -12 -33 -25 -30 -29 4 -3
11 0 16 8 6 8 10 10 10 4 0 -14 -69 -127 -83 -136 -7 -4 -12 -11 -13 -15 -2
-23 -29 -63 -43 -63 -10 0 -12 -3 -5 -10 8 -8 4 -25 -13 -57 -12 -26 -23 -53
-23 -61 0 -20 -59 -92 -76 -92 -8 0 -14 -4 -14 -9 0 -16 -64 -37 -110 -36 -25
1 -48 -4 -52 -9 -4 -6 -30 -10 -57 -9 -54 2 -106 35 -96 61 4 10 0 12 -11 8
-8 -3 -20 -6 -26 -6 -6 0 0 -9 13 -21 l24 -20 -27 17 c-31 18 -33 25 -17 41 7
7 7 13 0 17 -5 4 -8 12 -5 19 2 7 -6 19 -20 27 -14 7 -24 16 -23 20 1 4 -9 17
-23 28 -14 11 -22 24 -17 28 4 4 14 -1 22 -12 14 -19 15 -19 12 1 -1 11 -6 26
-10 33 -5 6 -4 12 2 12 5 0 13 -4 16 -10 3 -5 11 -10 17 -10 7 0 6 6 -2 15
-10 12 -10 15 2 15 8 0 20 6 26 13 7 6 16 12 20 12 13 1 72 39 72 47 0 4 8 8
18 8 9 0 26 14 37 30 11 16 28 30 38 30 9 0 17 5 17 10 0 6 -5 10 -11 10 -7 0
0 9 14 20 14 11 32 18 40 14 8 -3 23 5 33 19 11 13 25 22 32 19 7 -2 10 2 7
10 -9 26 10 38 130 83 39 15 84 33 100 41 40 18 66 19 39 0z m-4853 -7 c24 8
31 7 43 -10 11 -17 18 -19 34 -10 29 15 34 14 23 -6 -5 -10 -14 -30 -21 -44
-15 -34 -65 -43 -124 -25 -66 22 -98 28 -92 17 4 -5 21 -13 39 -17 31 -7 32
-8 7 -15 -14 -4 -42 -7 -62 -8 -33 -1 -37 2 -48 35 -14 42 -9 50 20 34 19 -10
26 -8 49 13 40 37 63 47 84 35 12 -6 28 -6 48 1z"/>
<path d="M6867 2845 c-10 -69 -10 -66 -30 -160 -28 -123 -37 -155 -56 -198
-11 -23 -33 -80 -49 -127 -17 -47 -49 -125 -72 -175 -47 -100 -90 -211 -90
-229 0 -6 22 37 49 97 26 59 55 113 63 120 25 21 161 414 172 502 2 11 9 45
15 75 7 30 11 78 9 105 l-3 50 -8 -60z"/>
<path d="M467 7204 c-7 -8 17 -57 49 -100 19 -25 33 -33 74 -38 41 -5 53 -12
62 -31 12 -28 33 -33 41 -11 3 8 19 17 34 20 16 4 48 26 72 49 37 35 41 43 25
46 -10 1 -27 10 -37 19 -24 21 -77 26 -77 7 0 -8 -8 -15 -17 -15 -9 0 -31 -5
-50 -12 -29 -11 -36 -9 -62 10 -17 12 -33 22 -37 22 -3 0 -17 9 -31 20 -27 21
-36 24 -46 14z"/>
<path d="M1248 5429 c-20 -5 -80 -10 -132 -12 -58 -2 -101 -8 -108 -15 -7 -7
-20 -12 -29 -12 -9 0 -22 -7 -29 -15 -7 -8 -27 -15 -44 -15 -18 0 -57 -12 -87
-27 -62 -32 -83 -66 -92 -154 l-7 -56 105 -89 c113 -96 247 -207 308 -256 20
-16 37 -24 37 -18 0 7 -62 72 -137 145 l-137 133 -1 117 c0 111 1 118 24 136
30 24 68 24 106 -1 42 -28 54 -26 110 25 73 67 104 60 213 -48 89 -88 110
-120 116 -178 12 -125 45 -237 72 -246 7 -2 14 14 18 40 6 41 9 44 34 42 15
-1 43 -7 62 -13 49 -16 115 3 137 40 16 25 15 28 -11 63 -29 37 -47 43 -25 7
15 -24 4 -56 -16 -48 -8 3 -17 1 -20 -4 -10 -16 -45 -11 -76 11 -30 21 -38 44
-16 52 9 3 9 8 -2 21 -11 13 -11 22 -3 41 10 21 8 26 -8 35 -13 7 -20 21 -20
40 0 26 4 30 28 29 34 -1 64 -12 63 -24 -1 -6 5 -10 12 -10 8 0 13 -20 15 -57
2 -32 7 -58 12 -58 17 0 48 74 43 102 -9 45 -36 61 -104 61 l-61 -1 7 48 c6
46 5 50 -22 66 -15 10 -41 29 -57 42 -59 48 -122 72 -183 71 -32 -1 -75 -5
-95 -10z"/>
<path d="M2234 4865 c-4 -9 -19 -15 -38 -15 -61 0 -123 -27 -196 -85 -39 -31
-69 -59 -67 -62 3 -2 38 21 79 51 64 49 143 86 184 86 7 0 36 -12 64 -26 33
-16 60 -24 75 -20 19 5 30 -2 57 -36 35 -45 39 -52 84 -158 30 -69 67 -135 82
-144 14 -8 22 88 11 126 -5 18 -9 49 -9 68 0 29 -8 44 -42 77 -24 23 -67 51
-97 63 -30 12 -72 35 -93 51 -21 17 -38 26 -38 20 0 -6 -7 -11 -15 -11 -8 0
-15 7 -15 15 0 8 -5 15 -10 15 -6 0 -13 -7 -16 -15z"/>
<path d="M2140 4641 c-20 -21 -40 -53 -43 -70 -4 -19 -13 -31 -23 -31 -10 0
-14 5 -10 15 7 18 -7 19 -34 3 -17 -11 -26 -10 -50 4 -17 9 -30 14 -30 10 0
-11 96 -72 163 -102 l60 -27 -58 -27 c-70 -32 -128 -52 -178 -61 l-37 -7 6 31
c6 30 -7 43 -21 21 -10 -16 -35 -12 -35 6 0 8 -4 12 -10 9 -5 -3 -10 -17 -10
-31 0 -50 -77 -22 -228 82 -104 72 -184 114 -219 114 -27 0 -28 -6 -8 -40 8
-14 14 -36 15 -51 0 -15 14 -38 36 -60 19 -18 44 -52 54 -74 16 -35 26 -43 72
-58 29 -10 62 -24 72 -32 17 -13 17 -17 5 -32 -13 -15 -12 -16 6 -9 28 10 25
10 76 2 79 -13 193 -12 204 1 6 7 42 21 82 31 54 14 84 28 120 58 26 23 61 49
76 59 39 25 137 122 130 128 -2 3 -23 -1 -45 -9 -23 -8 -43 -12 -46 -10 -8 8
9 26 25 26 11 0 13 6 8 23 -4 12 -8 36 -9 52 0 17 -8 45 -16 63 -21 45 -53 43
-100 -7z"/>
<path d="M1190 4107 c0 -28 71 -147 129 -215 l64 -75 -39 -33 c-21 -19 -52
-36 -67 -40 -17 -3 -32 -15 -37 -29 -10 -25 -36 -35 -96 -35 -70 0 -202 76
-296 171 -32 33 -64 59 -72 59 -8 0 -28 11 -44 25 -80 68 -30 -12 128 -203
142 -171 126 -161 318 -182 105 -11 161 -33 190 -72 28 -38 62 -6 62 59 0 14
16 47 35 73 19 26 35 54 35 61 0 8 8 26 18 40 9 15 29 45 45 67 22 34 27 53
27 101 0 59 0 59 -32 66 -49 11 -118 51 -166 98 -37 36 -47 41 -81 38 -24 -1
-55 5 -80 17 -24 12 -41 16 -41 9z"/>
<path d="M437 3636 c-26 -18 -78 -62 -115 -98 -73 -71 -92 -83 -157 -103 -44
-13 -45 -13 -70 17 -19 22 -30 28 -46 23 -18 -6 -21 -4 -16 10 5 12 2 16 -11
13 -12 -2 -18 -15 -20 -44 -3 -37 0 -42 27 -53 16 -7 40 -12 53 -11 37 3 43 1
81 -25 l37 -24 77 20 c43 11 78 21 78 22 8 26 59 112 88 145 20 24 37 52 37
63 0 11 7 33 15 49 21 40 4 39 -58 -4z"/>
<path d="M116 2971 c-5 -7 2 -11 18 -11 16 0 26 -6 26 -15 0 -9 6 -12 18 -8
16 6 16 5 -1 -14 -12 -14 -17 -33 -15 -55 3 -30 6 -33 34 -32 33 2 84 39 84
61 0 7 7 13 15 13 12 0 13 4 5 19 -13 26 -172 62 -184 42z"/>
</g>
</svg>
